<?xml version="1.0" encoding="utf-8"?>
<!-- Generator: Adobe Illustrator 24.2.1, SVG Export Plug-In . SVG Version: 6.00 Build 0)  -->
<svg version="1.1" id="Layer_1" xmlns="http://www.w3.org/2000/svg" xmlns:xlink="http://www.w3.org/1999/xlink" x="0px" y="0px"
	 viewBox="0 0 300 300" style="enable-background:new 0 0 300 300;" xml:space="preserve">
<style type="text/css">
	.st0{fill:#D74761;}
</style>
<g>
	<g>
		<g>
			<polygon class="st0" points="247.8,219.9 247.8,247.8 52.5,247.8 52.5,219.9 24.3,219.9 24.3,275.4 275.4,275.4 275.4,219.9 			
				"/>
			<g>
				<path class="st0" d="M244.8,219.9c0,9.3,0,18.6,0,27.9c0.9-0.9,2.1-2.1,3-3c-65.1,0-130.2,0-195.3,0c0.9,0.9,2.1,2.1,3,3
					c0-9.3,0-18.6,0-27.9c0-1.5-1.5-3-3-3c-9.3,0-18.6,0-27.9,0c-1.5,0-3,1.5-3,3c0,18.6,0,37.2,0,55.8c0,1.5,1.5,3,3,3
					c83.7,0,167.4,0,251.1,0c1.5,0,3-1.5,3-3c0-18.6,0-37.2,0-55.8c0-1.5-1.5-3-3-3c-9.3,0-18.6,0-27.9,0c-3.9,0-3.9,6,0,6
					c9.3,0,18.6,0,27.9,0c-0.9-0.9-2.1-2.1-3-3c0,18.6,0,37.2,0,55.8c0.9-0.9,2.1-2.1,3-3c-83.7,0-167.4,0-251.1,0
					c0.9,0.9,2.1,2.1,3,3c0-18.6,0-37.2,0-55.8c-0.9,0.9-2.1,2.1-3,3c9.3,0,18.6,0,27.9,0c-0.9-0.9-2.1-2.1-3-3c0,9.3,0,18.6,0,27.9
					c0,1.5,1.5,3,3,3c65.1,0,130.2,0,195.3,0c1.5,0,3-1.5,3-3c0-9.3,0-18.6,0-27.9C250.8,216,244.8,216,244.8,219.9z"/>
			</g>
		</g>
	</g>
	<g>
		<polygon class="st0" points="108,24.3 108,135.9 52.5,135.9 150,219.9 247.8,135.9 192,135.9 192,24.3 		"/>
		<g>
			<path class="st0" d="M105,24.3c0,37.2,0,74.4,0,111.6c0.9-0.9,2.1-2.1,3-3c-18.6,0-37.2,0-55.8,0c-2.4,0-4.2,3.3-2.1,5.1
				c32.7,28.2,65.1,56.1,97.8,84c1.2,1.2,3,1.2,4.2,0c32.4-27.9,65.1-55.8,97.8-83.7c2.1-1.8,0.3-5.1-2.1-5.1c-18.6,0-37.2,0-55.8,0
				c0.9,0.9,2.1,2.1,3,3c0-37.2,0-74.4,0-111.6c0-1.5-1.5-3-3-3c-27.9,0-55.8,0-83.7,0c-3.9,0-3.9,6,0,6c27.9,0,55.8,0,83.7,0
				c-0.9-0.9-2.1-2.1-3-3c0,37.2,0,74.4,0,111.6c0,1.5,1.5,3,3,3c18.6,0,37.2,0,55.8,0c-0.6-1.8-1.5-3.3-2.1-5.1
				c-32.7,27.6-65.4,55.5-97.8,83.4c1.5,0,2.7,0,4.2,0c-32.4-27.9-65.1-55.8-97.5-83.7c-0.6,1.8-1.5,3.3-2.1,5.1
				c18.6,0,37.2,0,55.8,0c1.5,0,3-1.5,3-3c0-37.2,0-74.4,0-111.6C111,20.7,105,20.7,105,24.3z"/>
		</g>
	</g>
</g>
</svg>
