<?xml version="1.0" encoding="utf-8"?>
<!-- Generator: Adobe Illustrator 24.2.1, SVG Export Plug-In . SVG Version: 6.00 Build 0)  -->
<svg version="1.1" id="Layer_1" xmlns="http://www.w3.org/2000/svg" xmlns:xlink="http://www.w3.org/1999/xlink" x="0px" y="0px"
	 viewBox="0 0 300 300" style="enable-background:new 0 0 300 300;" xml:space="preserve">
<style type="text/css">
	.st0{fill:#FFFFFF;}
</style>
<g>
	<g>
		<path class="st0" d="M203.8,107.3c0.1,2.6-0.1,5.3-0.5,7.9c0.1-0.8,0.2-1.6,0.3-2.3c-0.8,5.7-2.3,11.4-4.6,16.7
			c0.3-0.7,0.6-1.4,0.9-2.1c-1.4,3.3-3.1,6.6-5,9.6c-0.5,0.8-1.1,1.6-1.6,2.5c-0.2,0.4-0.5,0.7-0.7,1.1c-0.2,0.3-1,1-1.1,1.4
			c0-0.1,1.4-1.8,0.6-0.7c-0.1,0.2-0.3,0.4-0.4,0.5c-0.3,0.4-0.7,0.8-1,1.2c-0.7,0.8-1.4,1.6-2.2,2.4c-1.6,1.7-3.2,3.3-4.9,4.7
			c-0.8,0.7-1.7,1.4-2.5,2.1c-0.4,0.3-0.7,0.6-1.1,0.8c2.2-1.8,0.5-0.4-0.1,0c-3.4,2.5-7,4.8-10.7,6.9c-4.1,2.3-8.4,4.4-12.8,6.2
			c0.7-0.3,1.4-0.6,2.1-0.9c-13.7,5.8-28.1,9.1-42.3,13.4c-3.1,0.9-6.2,2.1-9.2,3.3c-4.2,1.8-8,4.3-11.6,7.3
			c-5.4,4.4-9.8,10.3-12.7,16.6c-1.6,3.5-3.3,7.2-3.9,11.1c-0.4,2.4-0.4,4.6,0.9,6.8c1.1,1.8,3.2,3.6,5.2,4c2.3,0.5,4.8,0.4,6.8-0.9
			c1.8-1.2,3.7-3,4-5.2c0.4-2.6,1.4-5.2,2.4-7.7c-0.3,0.7-0.6,1.4-0.9,2.1c0.8-1.9,1.7-3.7,2.8-5.4c0.6-1,1.3-2,2-3
			c0.1-0.2,0.3-0.4,0.5-0.6c0.6-0.8-1.5,1.9-0.7,0.9c0.4-0.5,0.8-1.1,1.3-1.6c0.8-1,1.8-1.9,2.7-2.8c0.5-0.5,1-0.9,1.5-1.3
			c0.3-0.2,0.6-0.5,0.9-0.7c0.8-0.7-1.8,1.3-0.7,0.6c2.6-1.9,5.3-3.5,8.3-4.7c-0.7,0.3-1.4,0.6-2.1,0.9c7.7-3.2,16.1-5,24.1-7.2
			c11.5-3.3,22.9-7.1,33.8-12.4c11.8-5.7,23.2-13.4,31.7-23.5c7.5-8.9,13.1-19.3,15.9-30.6c1.1-4.2,1.7-8.6,2-13
			c0.1-1.4,0.2-2.8,0.1-4.2c-0.3-4.6-3.9-9-8.8-8.8C208.1,98.7,203.5,102.3,203.8,107.3L203.8,107.3z"/>
	</g>
</g>
<g>
	<g>
		<path class="st0" d="M96.2,240.6c0-6,0-12,0-18.1c0-14.5,0-28.9,0-43.4c0-17.4,0-34.9,0-52.3c0-15.1,0-30.1,0-45.2
			c0-7.3,0.1-14.6,0-21.9c0-0.1,0-0.2,0-0.3c0-4.6-4-9-8.8-8.8c-4.8,0.2-8.8,3.9-8.8,8.8c0,6,0,12,0,18.1c0,14.5,0,28.9,0,43.4
			c0,17.4,0,34.9,0,52.3c0,15.1,0,30.1,0,45.2c0,7.3-0.1,14.6,0,21.9c0,0.1,0,0.2,0,0.3c0,4.6,4,9,8.8,8.8
			C92.2,249.2,96.2,245.5,96.2,240.6L96.2,240.6z"/>
	</g>
</g>
<g>
	<circle class="st0" cx="212.6" cy="86.6" r="20.6"/>
	<g>
		<path class="st0" d="M227.4,86.6c0,0.6,0,1.1-0.1,1.6c0,0.2,0,0.4-0.1,0.6c-0.1,0.8,0.2-1.2,0.1-0.4c-0.2,1-0.4,1.9-0.7,2.9
			c-0.1,0.2-0.4,1.4-0.5,1.5c-0.1,0,0.5-1.1,0.2-0.5c-0.1,0.2-0.2,0.5-0.3,0.7c-0.4,0.8-0.9,1.7-1.5,2.5c0,0-0.4,0.6-0.4,0.6
			c0,0,0.9-1.1,0.2-0.3c-0.3,0.3-0.6,0.7-0.9,1c-0.3,0.3-0.6,0.6-1,0.9c-0.2,0.2-0.4,0.3-0.6,0.5c-0.6,0.6,0.3-0.1,0.3-0.2
			c-0.1,0.5-2,1.3-2.4,1.6c-0.4,0.2-0.8,0.4-1.2,0.6c-0.8,0.4,0.3,0,0.4-0.1c-0.1,0.1-0.6,0.2-0.7,0.3c-0.9,0.3-1.9,0.6-2.8,0.8
			c-0.2,0-0.4,0.1-0.6,0.1c-1.1,0.2,0.4,0,0.4,0c-0.1,0.2-1.3,0.1-1.6,0.1c-1,0-2,0-3-0.1c-0.7,0,0.6,0.1,0.6,0.1
			c-0.2-0.1-0.6-0.1-0.8-0.1c-0.5-0.1-1-0.2-1.5-0.4c-0.5-0.1-1-0.3-1.5-0.5c-0.2-0.1-0.4-0.1-0.6-0.2c-0.7-0.2,1,0.6,0.3,0.1
			c-0.8-0.5-1.7-0.9-2.5-1.4c-0.2-0.1-1.2-0.6-1.3-0.9c0-0.1,0.9,0.8,0.4,0.3c-0.2-0.2-0.4-0.3-0.6-0.5c-0.7-0.6-1.3-1.3-2-2.1
			c-0.8-0.8,0.2,0.3,0.2,0.3c-0.1,0-0.4-0.6-0.4-0.6c-0.3-0.4-0.5-0.7-0.7-1.1c-0.2-0.4-0.4-0.8-0.7-1.2c-0.1-0.2-0.2-0.5-0.4-0.7
			c-0.4-0.8,0,0.3,0.1,0.4c-0.4-0.2-0.8-2.3-0.9-2.8c-0.1-0.4-0.2-0.9-0.3-1.3c-0.1-0.5,0.1-0.8,0,0.4c0-0.3-0.1-0.6-0.1-0.8
			c-0.1-1-0.1-2.1,0-3c0-0.2,0-0.4,0.1-0.6c0.1-1.2,0,0.4-0.1,0.4c-0.1-0.1,0.3-1.3,0.3-1.6c0.2-1,0.6-1.9,0.9-2.8
			c0.2-0.6-0.2,0.5-0.2,0.5c0,0,0.3-0.6,0.3-0.7c0.2-0.5,0.5-0.9,0.7-1.3c0.3-0.4,0.5-0.9,0.8-1.3c0.1-0.1,0.2-0.3,0.3-0.5
			c0.4-0.6-0.8,0.8-0.2,0.3c0.7-0.6,1.3-1.4,2-2.1c0.2-0.2,0.4-0.3,0.6-0.5c0.6-0.6-0.2,0-0.3,0.2c0.1-0.2,0.9-0.7,1.1-0.8
			c0.8-0.5,1.6-1,2.5-1.4c1-0.5-0.4,0.1-0.4,0.1c0-0.1,0.7-0.3,0.7-0.3c0.4-0.1,0.8-0.3,1.3-0.4s0.9-0.2,1.3-0.4
			c0.3-0.1,0.5-0.1,0.8-0.1c0.8-0.1-0.1,0.1-0.4,0c1,0.1,2.1-0.2,3-0.1c0.5,0,0.9,0.1,1.4,0.1c0.5,0,0.6,0.3-0.4-0.1
			c0.2,0.1,0.5,0.1,0.8,0.1c1.1,0.2,2.1,0.6,3.2,0.9c0.3,0.1,0.8,0.5,0.2,0.1c-0.6-0.5,0.1,0.1,0.4,0.2c0.5,0.2,0.9,0.5,1.3,0.7
			s0.9,0.5,1.3,0.8c0,0,0.6,0.4,0.6,0.4c-0.1-0.3-1-0.8-0.1-0.1c0.8,0.7,1.6,1.5,2.3,2.3c0.3,0.3,0.5,0.3,0,0c-0.3-0.4-0.3-0.4,0,0
			c0.1,0.1,0.1,0.2,0.2,0.3c0.3,0.4,0.6,0.8,0.8,1.3c0.3,0.5,0.6,1,0.8,1.5c0,0,0.3,0.5,0.2,0.5c0.1-0.1-0.4-1.2-0.1-0.1
			c0.4,1.1,0.7,2.1,0.9,3.2c0.1,0.2,0.1,0.6,0.1,0.8c-0.1-0.3-0.1-1.2-0.1-0.4C227.3,85.3,227.3,85.9,227.4,86.6
			c0,3.1,2.7,6,5.9,5.9c3.1-0.1,5.9-2.6,5.9-5.9c-0.1-11.3-7.2-21-17.7-25c-10-3.7-22.2-0.4-28.9,7.8c-7.1,8.7-8.5,21.1-2.6,30.8
			c5.9,9.7,17.2,14.4,28.3,12.2c12.1-2.4,20.8-13.7,20.9-25.9c0-3.1-2.7-6-5.9-5.9C230,80.9,227.4,83.3,227.4,86.6z"/>
	</g>
</g>
<g>
	<circle class="st0" cx="87.4" cy="38.8" r="20.6"/>
	<g>
		<path class="st0" d="M102.2,38.8c0,0.6,0,1.1-0.1,1.6c0,0.2,0,0.4-0.1,0.6c-0.1,0.8,0.2-1.2,0.1-0.4c-0.2,1-0.4,1.9-0.7,2.9
			c-0.1,0.2-0.4,1.4-0.5,1.5c-0.1,0,0.5-1.1,0.2-0.5c-0.1,0.2-0.2,0.5-0.3,0.7c-0.4,0.8-0.9,1.7-1.5,2.5c0,0-0.4,0.6-0.4,0.6
			c0,0,0.9-1.1,0.2-0.3c-0.3,0.3-0.6,0.7-0.9,1c-0.3,0.3-0.6,0.6-1,0.9c-0.2,0.2-0.4,0.3-0.6,0.5c-0.6,0.6,0.3-0.1,0.3-0.2
			c-0.1,0.5-2,1.3-2.4,1.6c-0.4,0.2-0.8,0.4-1.2,0.6c-0.8,0.4,0.3,0,0.4-0.1c-0.1,0.1-0.6,0.2-0.7,0.3c-0.9,0.3-1.9,0.6-2.8,0.8
			c-0.2,0-0.4,0.1-0.6,0.1c-1.1,0.2,0.4,0,0.4,0c-0.1,0.2-1.3,0.1-1.6,0.1c-1,0-2,0-3-0.1c-0.7,0,0.6,0.1,0.6,0.1
			c-0.2-0.1-0.6-0.1-0.8-0.1c-0.5-0.1-1-0.2-1.5-0.4c-0.5-0.1-1-0.3-1.5-0.5c-0.2-0.1-0.4-0.1-0.6-0.2c-0.7-0.2,1,0.6,0.3,0.1
			c-0.8-0.5-1.7-0.9-2.5-1.4C79,51,78,50.5,77.9,50.2c0-0.1,0.9,0.8,0.4,0.3c-0.2-0.2-0.4-0.3-0.6-0.5c-0.7-0.6-1.3-1.3-2-2.1
			C75,47.2,76,48.3,76,48.3c-0.1,0-0.4-0.6-0.4-0.6c-0.3-0.4-0.5-0.7-0.7-1.1c-0.2-0.4-0.4-0.8-0.7-1.2c-0.1-0.2-0.2-0.5-0.4-0.7
			c-0.4-0.8,0,0.3,0.1,0.4c-0.4-0.2-0.8-2.3-0.9-2.8c-0.1-0.4-0.2-0.9-0.3-1.3c-0.1-0.5,0.1-0.8,0,0.4c0-0.3-0.1-0.6-0.1-0.8
			c-0.1-1-0.1-2.1,0-3c0-0.2,0-0.4,0.1-0.6c0.1-1.2,0,0.4-0.1,0.4c-0.1-0.1,0.3-1.3,0.3-1.6c0.2-1,0.6-1.9,0.9-2.8
			c0.2-0.6-0.2,0.5-0.2,0.5c0,0,0.3-0.6,0.3-0.7c0.2-0.5,0.5-0.9,0.7-1.3s0.5-0.9,0.8-1.3c0.1-0.1,0.2-0.3,0.3-0.5
			c0.4-0.6-0.8,0.8-0.2,0.3c0.7-0.6,1.3-1.4,2-2.1c0.2-0.2,0.4-0.3,0.6-0.5c0.6-0.6-0.2,0-0.3,0.2c0.1-0.2,0.9-0.7,1.1-0.8
			c0.8-0.5,1.6-1,2.5-1.4c1-0.5-0.4,0.1-0.4,0.1c0-0.1,0.7-0.3,0.7-0.3c0.4-0.1,0.8-0.3,1.3-0.4c0.4-0.1,0.9-0.2,1.3-0.4
			c0.3-0.1,0.5-0.1,0.8-0.1c0.8-0.1-0.1,0.1-0.4,0c1,0.1,2.1-0.2,3-0.1c0.5,0,0.9,0.1,1.4,0.1c0.5,0,0.6,0.3-0.4-0.1
			c0.2,0.1,0.5,0.1,0.8,0.1c1.1,0.2,2.1,0.6,3.2,0.9c0.3,0.1,0.8,0.5,0.2,0.1c-0.6-0.5,0.1,0.1,0.4,0.2c0.5,0.2,0.9,0.5,1.3,0.7
			s0.9,0.5,1.3,0.8c0,0,0.6,0.4,0.6,0.4c-0.1-0.3-1-0.8-0.1-0.1c0.8,0.7,1.6,1.5,2.3,2.3c0.3,0.3,0.5,0.3,0,0c-0.3-0.4-0.3-0.4,0,0
			c0.1,0.1,0.1,0.2,0.2,0.3c0.3,0.4,0.6,0.8,0.8,1.3c0.3,0.5,0.6,1,0.8,1.5c0,0,0.3,0.5,0.2,0.5c0.1-0.1-0.4-1.2-0.1-0.1
			c0.4,1.1,0.7,2.1,0.9,3.2c0.1,0.2,0.1,0.6,0.1,0.8c-0.1-0.3-0.1-1.2-0.1-0.4C102.1,37.4,102.2,38.1,102.2,38.8
			c0,3.1,2.7,6,5.9,5.9c3.1-0.1,5.9-2.6,5.9-5.9c-0.1-11.3-7.2-21-17.7-25c-10-3.7-22.2-0.4-28.9,7.8c-7.1,8.7-8.5,21.1-2.6,30.8
			c5.9,9.7,17.2,14.4,28.3,12.2c12.1-2.4,20.8-13.7,20.9-25.9c0-3.1-2.7-6-5.9-5.9C104.8,33.1,102.2,35.5,102.2,38.8z"/>
	</g>
</g>
<g>
	<circle class="st0" cx="87.5" cy="261.2" r="20.6"/>
	<g>
		<path class="st0" d="M102.2,261.2c0,0.6,0,1.1-0.1,1.6c0,0.2,0,0.4-0.1,0.6c-0.1,0.8,0.2-1.2,0.1-0.4c-0.2,1-0.4,1.9-0.7,2.9
			c-0.1,0.2-0.4,1.4-0.5,1.5c-0.1,0,0.5-1.1,0.2-0.5c-0.1,0.2-0.2,0.5-0.3,0.7c-0.4,0.8-0.9,1.7-1.5,2.5c0,0-0.4,0.6-0.4,0.6
			c0,0,0.9-1.1,0.2-0.3c-0.3,0.3-0.6,0.7-0.9,1c-0.3,0.3-0.6,0.6-1,0.9c-0.2,0.2-0.4,0.3-0.6,0.5c-0.6,0.6,0.3-0.1,0.3-0.2
			c-0.1,0.5-2,1.3-2.4,1.6c-0.4,0.2-0.8,0.4-1.2,0.6c-0.8,0.4,0.3,0,0.4-0.1c-0.1,0.1-0.6,0.2-0.7,0.3c-0.9,0.3-1.9,0.6-2.8,0.8
			c-0.2,0-0.4,0.1-0.6,0.1c-1.1,0.2,0.4,0,0.4,0c-0.1,0.2-1.3,0.1-1.6,0.1c-1,0-2,0-3-0.1c-0.7,0,0.6,0.1,0.6,0.1
			c-0.2-0.1-0.6-0.1-0.8-0.1c-0.5-0.1-1-0.2-1.5-0.4c-0.5-0.1-1-0.3-1.5-0.5c-0.2-0.1-0.4-0.1-0.6-0.2c-0.7-0.2,1,0.6,0.3,0.1
			c-0.8-0.5-1.7-0.9-2.5-1.4c-0.2-0.1-1.2-0.6-1.3-0.9c0-0.1,0.9,0.8,0.4,0.3c-0.2-0.2-0.4-0.3-0.6-0.5c-0.7-0.6-1.3-1.3-2-2.1
			c-0.8-0.8,0.2,0.3,0.2,0.3c-0.1,0-0.4-0.6-0.4-0.6c-0.3-0.4-0.5-0.7-0.7-1.1s-0.4-0.8-0.7-1.2c-0.1-0.2-0.2-0.5-0.4-0.7
			c-0.4-0.8,0,0.3,0.1,0.4c-0.4-0.2-0.8-2.3-0.9-2.8s-0.2-0.9-0.3-1.3c-0.1-0.5,0.1-0.8,0,0.4c0-0.3-0.1-0.6-0.1-0.8
			c-0.1-1-0.1-2.1,0-3c0-0.2,0-0.4,0.1-0.6c0.1-1.2,0,0.4-0.1,0.4c-0.1-0.1,0.3-1.3,0.3-1.6c0.2-1,0.6-1.9,0.9-2.8
			c0.2-0.6-0.2,0.5-0.2,0.5c0,0,0.3-0.6,0.3-0.7c0.2-0.5,0.5-0.9,0.7-1.3c0.3-0.4,0.5-0.9,0.8-1.3c0.1-0.1,0.2-0.3,0.3-0.5
			c0.4-0.6-0.8,0.8-0.2,0.3c0.7-0.6,1.3-1.4,2-2.1c0.2-0.2,0.4-0.3,0.6-0.5c0.6-0.6-0.2,0-0.3,0.2c0.1-0.2,0.9-0.7,1.1-0.8
			c0.8-0.5,1.6-1,2.5-1.4c1-0.5-0.4,0.1-0.4,0.1c0-0.1,0.7-0.3,0.7-0.3c0.4-0.1,0.8-0.3,1.3-0.4c0.4-0.1,0.9-0.2,1.3-0.4
			c0.3-0.1,0.5-0.1,0.8-0.1c0.8-0.1-0.1,0.1-0.4,0c1,0.1,2.1-0.2,3-0.1c0.5,0,0.9,0.1,1.4,0.1c0.5,0,0.6,0.3-0.4-0.1
			c0.2,0.1,0.5,0.1,0.8,0.1c1.1,0.2,2.1,0.6,3.2,0.9c0.3,0.1,0.8,0.5,0.2,0.1c-0.6-0.5,0.1,0.1,0.4,0.2c0.5,0.2,0.9,0.5,1.3,0.7
			s0.9,0.5,1.3,0.8c0,0,0.6,0.4,0.6,0.4c-0.1-0.3-1-0.8-0.1-0.1c0.8,0.7,1.6,1.5,2.3,2.3c0.3,0.3,0.5,0.3,0,0c-0.3-0.4-0.3-0.4,0,0
			c0.1,0.1,0.1,0.2,0.2,0.3c0.3,0.4,0.6,0.8,0.8,1.3c0.3,0.5,0.6,1,0.8,1.5c0,0,0.3,0.5,0.2,0.5c0.1-0.1-0.4-1.2-0.1-0.1
			c0.4,1.1,0.7,2.1,0.9,3.2c0.1,0.2,0.1,0.6,0.1,0.8c-0.1-0.3-0.1-1.2-0.1-0.4C102.2,259.9,102.2,260.5,102.2,261.2
			c0,3.1,2.7,6,5.9,5.9c3.1-0.1,5.9-2.6,5.9-5.9c-0.1-11.3-7.2-21-17.7-25c-10-3.7-22.2-0.4-28.9,7.8c-7.1,8.7-8.5,21.1-2.6,30.8
			c5.9,9.7,17.2,14.4,28.3,12.2c12.1-2.4,20.8-13.7,20.9-25.9c0-3.1-2.7-6-5.9-5.9C104.9,255.5,102.3,257.9,102.2,261.2z"/>
	</g>
</g>
</svg>
