<?xml version="1.0" encoding="utf-8"?>
<!-- Generator: Adobe Illustrator 24.2.1, SVG Export Plug-In . SVG Version: 6.00 Build 0)  -->
<svg version="1.1"
	 id="Layer_1" xmlns:cc="http://creativecommons.org/ns#" xmlns:dc="http://purl.org/dc/elements/1.1/" xmlns:inkscape="http://www.inkscape.org/namespaces/inkscape" xmlns:rdf="http://www.w3.org/1999/02/22-rdf-syntax-ns#" xmlns:sodipodi="http://sodipodi.sourceforge.net/DTD/sodipodi-0.dtd" xmlns:svg="http://www.w3.org/2000/svg"
	 xmlns="http://www.w3.org/2000/svg" xmlns:xlink="http://www.w3.org/1999/xlink" x="0px" y="0px" viewBox="0 0 300 300"
	 style="enable-background:new 0 0 300 300;" xml:space="preserve">
<style type="text/css">
	.st0{fill:#FFFFFF;}
</style>
<g transform="translate(0,-952.36218)">
	<path class="st0" d="M57,973.4c-19.8,0-36,16.2-36,36c0,19.8,16.2,36,36,36s36-16.2,36-36C93,989.6,76.8,973.4,57,973.4z
		 M213,1051.4c-19.2,0-32.2,8.2-42,17.5v-5.5c0-3.1-2.9-6-6-6h-48c-3.1,0-6,2.9-6,6v162c0,3.1,2.9,6,6,6h51c3.1,0,6-2.9,6-6v-90
		c0-7.6,2.4-14.8,5.9-19.7s7.8-7.3,12.1-7.3h6c4.3,0,8.6,2.4,12.1,7.3s5.9,12.1,5.9,19.7v90c0,3.1,2.9,6,6,6h51c3.1,0,6-2.9,6-6
		v-105c0-20-3.7-37.4-14.4-49.9S236.7,1051.4,213,1051.4z M32.4,1057.4c-2.9,0.3-5.5,3-5.4,6v162c0,3.1,2.9,6,6,6h51
		c3.1,0,6-2.9,6-6v-162c0-3.1-2.9-6-6-6C66.8,1057.4,49.6,1057.4,32.4,1057.4z"/>
</g>
</svg>
