<?xml version="1.0" encoding="utf-8"?>
<!-- Generator: Adobe Illustrator 24.2.1, SVG Export Plug-In . SVG Version: 6.00 Build 0)  -->
<svg version="1.1" id="Layer_1" xmlns="http://www.w3.org/2000/svg" xmlns:xlink="http://www.w3.org/1999/xlink" x="0px" y="0px"
	 viewBox="0 0 300 300" style="enable-background:new 0 0 300 300;" xml:space="preserve">
<style type="text/css">
	.st0{fill-rule:evenodd;clip-rule:evenodd;fill:#FFFFFF;}
</style>
<g>
	<path class="st0" d="M150,300c0,0-114.6-123.3-114.6-186.3C35.5,50.4,86.8-0.8,150-0.8c63.2,0,114.5,51.3,114.5,114.5
		C264.6,176.7,150,300,150,300z M198.8,111.3c0.2-26.9-21.4-48.9-48.4-49.2s-48.9,21.4-49.2,48.4s21.4,48.9,48.4,49.2
		c0.1,0,0.3,0,0.4,0C176.8,159.8,198.7,138.1,198.8,111.3C198.8,111.3,198.8,111.3,198.8,111.3z"/>
</g>
</svg>
