<?xml version="1.0" encoding="utf-8"?>
<!-- Generator: Adobe Illustrator 24.2.1, SVG Export Plug-In . SVG Version: 6.00 Build 0)  -->
<svg version="1.1" id="Layer_1" xmlns="http://www.w3.org/2000/svg" xmlns:xlink="http://www.w3.org/1999/xlink" x="0px" y="0px"
	 viewBox="0 0 300 300" style="enable-background:new 0 0 300 300;" xml:space="preserve">
<style type="text/css">
	.st0{fill:#FFFDFD;}
</style>
<path class="st0" d="M95.8,300c-5.9-1.3-11.3-4.3-15.5-8.7c-4.7-5-7.3-11.7-7.3-18.6c0-81.9,0-163.8,0-245.6
	C72.7,14.2,81.8,3,94.5,0.5c0.5-0.1,0.9-0.3,1.3-0.5h109c0.6,0.3,1.2,0.5,1.8,0.7C218.7,3.6,227.2,14.5,227,27
	c0,81.7,0,163.4,0,245.1c0.3,13.2-8.9,24.7-21.8,27.4c-0.4,0.1-0.7,0.3-1,0.5L95.8,300L95.8,300z M81.9,244.7H218V54.6H81.9V244.7z
	 M150,281.4c7.4,0.1,13.5-5.9,13.6-13.3c0-0.1,0-0.1,0-0.2c-0.4-7.5-6.7-13.3-14.2-13c-7,0.3-12.6,5.9-13,13c0,7.5,6,13.5,13.5,13.5
	C149.9,281.4,149.9,281.4,150,281.4z M150,27h-16.9c-3.7,0-5.7,1.7-5.7,4.8c0,2.6,2.2,4.7,4.8,4.7c0.2,0,0.5,0,0.7-0.1h34
	c3.7,0,5.7-1.7,5.7-4.8c0-2.6-2.2-4.7-4.8-4.7c-0.2,0-0.5,0-0.7,0.1H150z"/>
</svg>
