<?xml version="1.0" encoding="utf-8"?>
<!-- Generator: Adobe Illustrator 24.2.1, SVG Export Plug-In . SVG Version: 6.00 Build 0)  -->
<svg version="1.1" id="Layer_1" xmlns="http://www.w3.org/2000/svg" xmlns:xlink="http://www.w3.org/1999/xlink" x="0px" y="0px"
	 viewBox="0 0 300 300" style="enable-background:new 0 0 300 300;" xml:space="preserve">
<style type="text/css">
	.st0{fill:none;}
	.st1{fill-rule:evenodd;clip-rule:evenodd;fill:#FFFFFF;}
</style>
<g transform="matrix(1,0,0,1,-192,0)">
	<g transform="matrix(1,0,0,1,192,0)">
		<rect class="st0" width="300" height="300"/>
		<g transform="matrix(1,0,0,1,-192,0)">
			<path class="st1" d="M342,12.5c0.4,0,0.9,0,1.8,0c6.4,0.1,12.8,0.6,19.1,1.6c12.9,2,25.4,5.8,37.2,11.3
				c12.5,5.8,24.1,13.6,34.4,22.9c11.8,10.8,21.8,23.6,29.2,37.7c6.3,11.9,10.8,24.8,13.4,38.1c2.9,14.9,3.2,30.2,1.1,45.2
				c-2,14-6.1,27.7-12.2,40.4c-7.2,14.9-17.1,28.5-29.1,39.9c-12.4,11.8-27,21.3-42.9,27.8c-16.4,6.7-34,10.1-51.6,10.2
				c-0.1,0-0.2,0-0.3,0s-0.2,0-0.3,0c-17.7,0-35.3-3.5-51.6-10.2c-15.9-6.5-30.5-16-42.9-27.8c-12-11.4-21.9-25-29.1-39.9
				c-6.1-12.7-10.3-26.4-12.2-40.4c-2.1-15-1.7-30.3,1.1-45.2c2.5-13.3,7.1-26.1,13.4-38.1c7.5-14.1,17.4-27,29.2-37.7
				c10.2-9.3,21.8-17,34.4-22.9c11.8-5.5,24.3-9.3,37.2-11.3c6.3-1,12.7-1.4,19.1-1.6C341.1,12.5,341.6,12.5,342,12.5L342,12.5
				L342,12.5z M375.1,200h-66.3c1,5.6,2.3,11.1,3.8,16.6c1,3.7,2.1,7.4,3.4,11.1c2.1,6,4.5,11.8,7.5,17.4c2.1,3.8,4.4,7.4,7.3,10.6
				c0.5,0.6,1.1,1.2,1.6,1.7s1.1,1,1.6,1.5c2.1,1.8,4.8,3.5,7.7,3.6c3.1,0.1,5.9-1.7,8.2-3.6c0.5-0.5,1.1-1,1.6-1.5
				c2.6-2.6,4.8-5.6,6.8-8.8c2.8-4.4,5-9.2,7-14c1.2-3,2.3-6,3.4-9.1c1.2-3.7,2.3-7.5,3.3-11.3C373.2,209.5,374.3,204.8,375.1,200z
				 M283.5,200h-42.3c5.8,11.7,13.7,22.4,23.2,31.4c10.2,9.7,22.1,17.4,35.1,22.8c0.2,0.1,0.5,0.2,0.8,0.3c-0.6-1.2-1.2-2.4-1.8-3.7
				c-1.6-3.3-3-6.7-4.3-10.1c-1.6-4.1-2.9-8.2-4.2-12.3C287.2,219.1,285.1,209.6,283.5,200z M442.8,200h-42.3
				c-1.6,9.6-3.7,19.1-6.5,28.3c-1.2,4.2-2.6,8.3-4.2,12.3c-1.3,3.4-2.7,6.8-4.3,10.1c-0.6,1.2-1.2,2.4-1.8,3.7
				c0.3-0.1,0.5-0.2,0.8-0.3c13-5.3,24.9-13.1,35.1-22.8C429.1,222.4,437,211.7,442.8,200z M280.5,125h-48.2
				c-0.3,1.2-0.5,2.5-0.8,3.7c-2.3,12.2-2.6,24.8-0.9,37c0.4,3.1,1,6.2,1.7,9.2c16,0,32.1-0.2,48.1-0.4c-1-12.6-1.2-25.2-0.7-37.8
				C279.9,132.8,280.2,128.9,280.5,125z M451.7,125h-48.2c0.3,3.9,0.5,7.8,0.7,11.7c0.5,12.3,0.3,24.6-0.6,36.9
				c16,0.1,32.1,0.5,48.1,1.1c0.7-2.9,1.2-5.9,1.6-8.9c1.7-12.3,1.4-24.9-0.9-37C452.3,127.5,452,126.2,451.7,125z M378.5,125h-72.9
				c-0.5,6.3-0.8,12.5-1,18.8c-0.2,10.1,0.1,20.3,0.9,30.4c24.4-0.3,48.7-0.7,73.1-0.7c0.9-10.9,1.1-21.8,0.8-32.7
				C379.2,135.5,378.9,130.3,378.5,125z M300.3,45.5c-1.9,0.8-3.9,1.6-5.8,2.5c-22.6,10.5-41.3,28.6-52.7,50.8
				c-0.2,0.4-0.4,0.8-0.6,1.1c14.1-0.1,28.2-0.2,42.3-0.4c0.4-2,0.7-4,1.1-6c2.1-10.8,4.8-21.4,8.6-31.8c1.3-3.5,2.7-7,4.2-10.3
				C298.3,49.4,299.3,47.4,300.3,45.5z M383.7,45.5c1,1.9,1.9,3.9,2.8,5.8c1.5,3.4,2.9,6.9,4.2,10.3c3.8,10.3,6.5,21,8.6,31.8
				c0.3,1.7,0.6,3.4,0.9,5.1c14.1,0.1,28.1,0.3,42.2,0.8c-0.1-0.2-0.2-0.3-0.3-0.5C430.7,76.6,412,58.5,389.4,48
				C387.6,47.1,385.7,46.3,383.7,45.5z M374.9,98.5c-1.4-7.4-3.2-14.7-5.5-21.9c-0.9-2.8-1.8-5.6-2.9-8.4
				c-1.9-5.1-4.2-10.1-6.9-14.8c-2-3.4-4.2-6.7-6.8-9.6c-1.5-1.6-3.2-3.2-5.1-4.4c-1.5-1-3.2-1.7-5-1.9c-0.3,0-0.7,0-1,0
				c-3.5,0.2-6.5,2.4-8.9,4.7c-0.6,0.5-1.1,1.1-1.7,1.7c-2.6,2.9-4.9,6.2-6.8,9.6c-2.7,4.7-5,9.7-6.9,14.8c-1,2.8-2,5.5-2.9,8.4
				c-2.3,7.4-4.1,14.9-5.6,22.6C331,98.8,352.9,98.5,374.9,98.5z"/>
		</g>
	</g>
</g>
</svg>
